<svg xmlns="http://www.w3.org/2000/svg" viewBox="0 0 1020 485" role="img" aria-labelledby="title"><title id="title">Spiral construction and one noisy three-coordinate example</title><defs><marker id="arrow" viewBox="0 0 10 10" refX="9" refY="5" markerWidth="6" markerHeight="6" orient="auto-start-reverse"><path d="M 0 0 L 10 5 L 0 10 z" fill="#245d9b"/></marker></defs><rect width="1020" height="485" fill="white"/><g font-family="Arial, sans-serif"><text x="250" y="32" font-size="17" text-anchor="middle" fill="#243447">A. Draw a clean spiral point</text><text x="760" y="32" font-size="17" text-anchor="middle" fill="#243447">B. Add noise outside the clean plane</text><path d="M 70 210 L 430 210" stroke="#245d9b" stroke-width="2" fill="none" marker-end="url(#arrow)"/><path d="M 250 380 L 250 55" stroke="#245d9b" stroke-width="2" fill="none" marker-end="url(#arrow)"/><text x="430" y="237" font-size="17" text-anchor="middle" fill="#243447">coordinate 1</text><text x="275" y="64" font-size="15" text-anchor="start" fill="#243447">coordinate 2</text><polyline points="250.000,210.000 250.187,209.997 250.375,209.988 250.562,209.974 250.749,209.953 250.935,209.926 251.120,209.894 251.305,209.856 251.488,209.812 251.671,209.762 251.852,209.707 252.032,209.645 252.210,209.578 252.387,209.506 252.562,209.427 252.735,209.343 252.906,209.254 253.075,209.159 253.241,209.058 253.405,208.952 253.566,208.841 253.725,208.725 253.881,208.603 254.034,208.476 254.184,208.343 254.331,208.206 254.474,208.064 254.614,207.917 254.750,207.765 254.883,207.608 255.012,207.446 255.137,207.280 255.258,207.109 255.375,206.934 255.487,206.755 255.595,206.571 255.699,206.383 255.798,206.191 255.893,205.995 255.983,205.795 256.068,205.592 256.148,205.384 256.222,205.173 256.292,204.959 256.357,204.741 256.416,204.520 256.470,204.296 256.518,204.069 256.561,203.839 256.598,203.606 256.629,203.371 256.655,203.133 256.674,202.893 256.688,202.650 256.696,202.405 256.697,202.158 256.693,201.910 256.682,201.659 256.665,201.407 256.642,201.153 256.613,200.899 256.577,200.642 256.534,200.385 256.485,200.127 256.430,199.868 256.368,199.608 256.299,199.348 256.224,199.088 256.142,198.827 256.054,198.566 255.959,198.306 255.857,198.045 255.748,197.785 255.633,197.525 255.510,197.266 255.381,197.008 255.246,196.751 255.103,196.495 254.954,196.240 254.798,195.986 254.635,195.734 254.466,195.484 254.289,195.235 254.107,194.989 253.917,194.745 253.721,194.503 253.518,194.263 253.308,194.026 253.092,193.792 252.869,193.561 252.640,193.333 252.404,193.108 252.162,192.886 251.913,192.668 251.659,192.453 251.398,192.242 251.130,192.036 250.857,191.833 250.577,191.634 250.292,191.440 250.000,191.250 249.703,191.065 249.399,190.884 249.090,190.709 248.776,190.538 248.455,190.373 248.130,190.213 247.798,190.059 247.462,189.910 247.120,189.766 246.774,189.629 246.422,189.497 246.065,189.372 245.703,189.253 245.337,189.140 244.966,189.033 244.591,188.933 244.211,188.840 243.827,188.754 243.439,188.674 243.047,188.601 242.651,188.536 242.251,188.477 241.848,188.426 241.441,188.383 241.031,188.347 240.617,188.318 240.201,188.297 239.781,188.284 239.359,188.279 238.934,188.282 238.506,188.293 238.077,188.311 237.644,188.339 237.210,188.374 236.774,188.418 236.336,188.470 235.897,188.530 235.456,188.599 235.014,188.677 234.571,188.763 234.126,188.858 233.681,188.962 233.236,189.075 232.790,189.196 232.343,189.326 231.897,189.466 231.450,189.614 231.004,189.771 230.558,189.937 230.113,190.113 229.668,190.297 229.224,190.490 228.782,190.693 228.341,190.905 227.901,191.125 227.462,191.355 227.026,191.594 226.592,191.843 226.159,192.100 225.729,192.366 225.302,192.642 224.877,192.927 224.456,193.220 224.037,193.523 223.621,193.835 223.209,194.156 222.801,194.486 222.396,194.825 221.996,195.172 221.599,195.529 221.207,195.894 220.819,196.269 220.436,196.652 220.058,197.043 219.685,197.443 219.317,197.852 218.955,198.269 218.598,198.695 218.247,199.129 217.902,199.571 217.563,200.021 217.230,200.479 216.904,200.946 216.584,201.420 216.271,201.902 215.965,202.392 215.666,202.890 215.374,203.395 215.090,203.907 214.814,204.427 214.545,204.954 214.284,205.488 214.031,206.029 213.786,206.577 213.550,207.131 213.323,207.692 213.104,208.260 212.893,208.834 212.692,209.414 212.500,210.000 212.317,210.592 212.144,211.190 211.980,211.793 211.825,212.402 211.681,213.016 211.546,213.635 211.422,214.259 211.308,214.888 211.203,215.522 211.110,216.160 211.027,216.802 210.954,217.448 210.892,218.099 210.841,218.753 210.801,219.411 210.772,220.072 210.755,220.736 210.748,221.404 210.753,222.074 210.769,222.747 210.797,223.422 210.836,224.100 210.887,224.780 210.949,225.461 211.024,226.144 211.110,226.829 211.208,227.515 211.319,228.202 211.441,228.890 211.575,229.578 211.722,230.267 211.881,230.956 212.052,231.645 212.235,232.334 212.431,233.023 212.638,233.710 212.859,234.397 213.092,235.083 213.337,235.767 213.594,236.450 213.864,237.131 214.147,237.811 214.442,238.488 214.749,239.162 215.069,239.834 215.401,240.503 215.746,241.169 216.103,241.831 216.472,242.490 216.854,243.146 217.249,243.797 217.655,244.444 218.074,245.086 218.505,245.724 218.948,246.357 219.404,246.985 219.871,247.607 220.351,248.224 220.842,248.835 221.345,249.440 221.861,250.038 222.388,250.630 222.926,251.216 223.477,251.794 224.038,252.366 224.612,252.930 225.196,253.486 225.792,254.034 226.399,254.575 227.017,255.107 227.646,255.631 228.285,256.146 228.936,256.652 229.597,257.150 230.268,257.638 230.950,258.116 231.641,258.585 232.343,259.043 233.055,259.492 233.777,259.930 234.508,260.358 235.248,260.776 235.998,261.182 236.757,261.577 237.525,261.961 238.302,262.334 239.088,262.694 239.881,263.044 240.684,263.381 241.494,263.706 242.312,264.018 243.138,264.318 243.971,264.606 244.812,264.880 245.660,265.142 246.515,265.390 247.377,265.626 248.245,265.847 249.119,266.056 250.000,266.250 250.886,266.431 251.779,266.597 252.676,266.749 253.579,266.888 254.487,267.011 255.399,267.120 256.317,267.215 257.238,267.295 258.163,267.359 259.093,267.409 260.026,267.444 260.962,267.464 261.901,267.468 262.843,267.457 263.788,267.431 264.735,267.389 265.684,267.331 266.635,267.258 267.587,267.168 268.541,267.063 269.496,266.943 270.451,266.806 271.407,266.653 272.364,266.484 273.320,266.299 274.276,266.098 275.231,265.880 276.185,265.647 277.139,265.397 278.091,265.131 279.041,264.849 279.989,264.550 280.935,264.235 281.879,263.904 282.819,263.556 283.757,263.193 284.691,262.813 285.622,262.416 286.549,262.004 287.471,261.575 288.389,261.130 289.303,260.669 290.211,260.191 291.114,259.698 292.011,259.189 292.903,258.663 293.788,258.122 294.667,257.565 295.539,256.992 296.404,256.404 297.262,255.800 298.112,255.180 298.954,254.545 299.789,253.895 300.615,253.229 301.432,252.548 302.240,251.852 303.039,251.141 303.829,250.416 304.609,249.676 305.379,248.921 306.138,248.151 306.887,247.368 307.625,246.570 308.353,245.758 309.068,244.933 309.773,244.094 310.465,243.241 311.146,242.375 311.814,241.496 312.469,240.603 313.112,239.698 313.741,238.780 314.358,237.850 314.960,236.907 315.549,235.953 316.124,234.986 316.685,234.008 317.231,233.018 317.763,232.017 318.279,231.006 318.781,229.983 319.267,228.949 319.738,227.906 320.193,226.852 320.632,225.788 321.055,224.715 321.461,223.632 321.851,222.540 322.225,221.439 322.581,220.330 322.920,219.212 323.242,218.086 323.547,216.952 323.834,215.811 324.103,214.662 324.355,213.506 324.588,212.344 324.803,211.175 325.000,210.000 325.178,208.819 325.338,207.632 325.479,206.441 325.601,205.244 325.703,204.042 325.787,202.836 325.852,201.626 325.897,200.412 325.922,199.195 325.929,197.974 325.915,196.751 325.882,195.525 325.829,194.297 325.756,193.067 325.663,191.835 325.549,190.602 325.416,189.368 325.263,188.134 325.089,186.899 324.896,185.665 324.682,184.431 324.447,183.197 324.192,181.965 323.917,180.734 323.622,179.505 323.306,178.278 322.969,177.053 322.612,175.831 322.235,174.612 321.837,173.397 321.419,172.185 320.981,170.978 320.522,169.775 320.043,168.577 319.543,167.384 319.024,166.196 318.484,165.014 317.924,163.839 317.344,162.670 316.744,161.508 316.124,160.353 315.484,159.205 314.825,158.066 314.145,156.934 313.446,155.812 312.728,154.698 311.990,153.593 311.233,152.498 310.457,151.413 309.662,150.338 308.848,149.273 308.015,148.220 307.164,147.178 306.294,146.147 305.406,145.128 304.500,144.121 303.575,143.127 302.633,142.145 301.674,141.177 300.696,140.222 299.702,139.281 298.690,138.354 297.662,137.441 296.617,136.543 295.555,135.660 294.477,134.793 293.384,133.940 292.274,133.104 291.149,132.284 290.008,131.480 288.852,130.693 287.681,129.923 286.496,129.170 285.297,128.435 284.083,127.717 282.855,127.017 281.614,126.336 280.359,125.674 279.092,125.030 277.812,124.405 276.519,123.799 275.214,123.213 273.897,122.647 272.569,122.101 271.229,121.575 269.878,121.070 268.517,120.585 267.145,120.121 265.764,119.678 264.372,119.256 262.972,118.856 261.562,118.477 260.144,118.121 258.717,117.786 257.282,117.474 255.840,117.184 254.390,116.916 252.933,116.671 251.470,116.449 250.000,116.250 248.524,116.074 247.043,115.921 245.557,115.792 244.066,115.686 242.571,115.604 241.071,115.546 239.568,115.512 238.062,115.501 236.553,115.515 235.041,115.552 233.527,115.614 232.011,115.700 230.494,115.811 228.976,115.946 227.458,116.106 225.939,116.290 224.421,116.498 222.903,116.731 221.386,116.989 219.871,117.272 218.357,117.579 216.846,117.911 215.337,118.268 213.832,118.649 212.330,119.056 210.831,119.486 209.337,119.942 207.848,120.422 206.364,120.927 204.885,121.456 203.412,122.010 201.945,122.588 200.485,123.191 199.032,123.818 197.587,124.470 196.149,125.145 194.720,125.845 193.300,126.568 191.889,127.316 190.487,128.087 189.095,128.882 187.713,129.700 186.342,130.542 184.983,131.408 183.635,132.296 182.298,133.207 180.974,134.142 179.663,135.098 178.364,136.078 177.080,137.080 175.809,138.104 174.552,139.149 173.310,140.217 172.082,141.306 170.870,142.417 169.674,143.549 168.494,144.701 167.330,145.875 166.183,147.068 165.053,148.283 163.941,149.517 162.846,150.770 161.770,152.044 160.712,153.336 159.673,154.648 158.654,155.978 157.654,157.327 156.673,158.693 155.713,160.078 154.774,161.480 153.855,162.899 152.957,164.335 152.081,165.788 151.227,167.257 150.394,168.742 149.584,170.243 148.797,171.758 148.032,173.289 147.291,174.835 146.573,176.394 145.878,177.968 145.208,179.555 144.562,181.155 143.940,182.768 143.343,184.394 142.771,186.032 142.224,187.681 141.703,189.341 141.207,191.013 140.737,192.694 140.293,194.386 139.875,196.088 139.484,197.799 139.119,199.519 138.781,201.247 138.471,202.983 138.187,204.727 137.930,206.478 137.701,208.236 137.500,210.000 137.326,211.770 137.181,213.545 137.063,215.326 136.973,217.111 136.912,218.900 136.879,220.693 136.875,222.489 136.899,224.288 136.952,226.089 137.033,227.892 137.143,229.697 137.283,231.502 137.451,233.308 137.648,235.114 137.874,236.919 138.129,238.724 138.413,240.527 138.726,242.328 139.068,244.127 139.440,245.923 139.840,247.716 140.270,249.505 140.728,251.290 141.216,253.071 141.733,254.846 142.279,256.615 142.853,258.379 143.457,260.136 144.089,261.885 144.750,263.628 145.439,265.362 146.158,267.088 146.904,268.805 147.679,270.512 148.483,272.210 149.314,273.897 150.173,275.574 151.060,277.239 151.975,278.893 152.918,280.534 153.888,282.163 154.885,283.779 155.909,285.381 156.961,286.969 158.038,288.543 159.143,290.101 160.274,291.645 161.430,293.172 162.613,294.684 163.821,296.179 165.055,297.656 166.314,299.116 167.598,300.559 168.907,301.982 170.240,303.387 171.597,304.773 172.978,306.139 174.383,307.485 175.811,308.811 177.262,310.116 178.735,311.399 180.231,312.661 181.750,313.901 183.290,315.119 184.851,316.314 186.433,317.485 188.037,318.633 189.660,319.757 191.304,320.857 192.967,321.933 194.650,322.983 196.352,324.008 198.072,325.008 199.810,325.981 201.567,326.929 203.340,327.849 205.131,328.743 206.938,329.609 208.761,330.448 210.600,331.260 212.455,332.043 214.324,332.798 216.208,333.524 218.106,334.221 220.017,334.889 221.941,335.527 223.878,336.136 225.828,336.715 227.789,337.264 229.761,337.782 231.744,338.270 233.738,338.727 235.741,339.153 237.754,339.548 239.776,339.911 241.806,340.242 243.844,340.542 245.889,340.810 247.941,341.046 250.000,341.250 252.065,341.421 254.134,341.560 256.209,341.666 258.288,341.740 260.371,341.780 262.458,341.788 264.547,341.762 266.638,341.703 268.731,341.611 270.825,341.486 272.920,341.327 275.015,341.135 277.110,340.910 279.204,340.651 281.296,340.358 283.387,340.032 285.474,339.673 287.559,339.280 289.640,338.853 291.717,338.393 293.790,337.899 295.857,337.372 297.918,336.811 299.973,336.217 302.021,335.590 304.062,334.929 306.095,334.236 308.119,333.509 310.134,332.749 312.140,331.957 314.136,331.131 316.121,330.273 318.095,329.383 320.057,328.460 322.007,327.504 323.944,326.517 325.868,325.498 327.778,324.447 329.674,323.365 331.555,322.251 333.421,321.106 335.271,319.930 337.104,318.724 338.921,317.487 340.720,316.219 342.501,314.922 344.264,313.595 346.008,312.238 347.732,310.852 349.437,309.437 351.121,307.993 352.785,306.521 354.427,305.021 356.047,303.493 357.645,301.937 359.220,300.355 360.772,298.745 362.301,297.109 363.805,295.447 365.285,293.759 366.740,292.046 368.169,290.308 369.573,288.545 370.950,286.757 372.301,284.946 373.624,283.111 374.920,281.253 376.188,279.373 377.428,277.470 378.639,275.545 379.821,273.599 380.974,271.632 382.097,269.644 383.189,267.636 384.251,265.609 385.282,263.562 386.283,261.497 387.251,259.413 388.188,257.312 389.092,255.194 389.964,253.059 390.803,250.907 391.609,248.740 392.382,246.557 393.121,244.360 393.826,242.149 394.497,239.924 395.133,237.686 395.735,235.435 396.301,233.172 396.833,230.897 397.329,228.612 397.790,226.316 398.214,224.010 398.603,221.695 398.955,219.371 399.272,217.039 399.551,214.700 399.794,212.353 400.000,210.000" fill="none" stroke="#245d9b" stroke-width="2.5"/><circle cx="212.5" cy="210" r="6" fill="#a94f13"/><text x="125" y="184" font-size="17" text-anchor="middle" fill="#a94f13">u = 0.25</text><text x="250" y="408" font-size="17" text-anchor="middle" fill="#243447">Clean point: (−0.5, 0). Two turns, radius limit 2.</text><path d="M 590 340 L 965 340" stroke="#245d9b" stroke-width="2" fill="none" marker-end="url(#arrow)"/><path d="M 865 355 L 865 65" stroke="#245d9b" stroke-width="2" fill="none" marker-end="url(#arrow)"/><text x="960" y="368" font-size="17" text-anchor="middle" fill="#243447">coordinate 1</text><text x="888" y="72" font-size="15" text-anchor="start" fill="#243447">coordinate 3</text><text x="720" y="330" font-size="16" text-anchor="middle" fill="#243447">Clean plane: coordinate 3 = 0</text><path d="M 865 140 L 765 340" stroke="#245d9b" stroke-width="2" fill="none" marker-end="url(#arrow)"/><circle cx="765" cy="340" r="6" fill="#a94f13"/><text x="750" y="393" font-size="16" text-anchor="middle" fill="#243447">clean x = (−0.5, 0, 0)</text><circle cx="865" cy="140" r="6" fill="#a94f13"/><text x="745" y="106" font-size="16" text-anchor="middle" fill="#243447">noise ε = (0, 0, 1)</text><circle cx="840" cy="190" r="6" fill="#a94f13"/><text x="752" y="174" font-size="16" text-anchor="middle" fill="#243447">input z = (−0.125, 0, 0.75)</text><text x="760" y="425" font-size="17" text-anchor="middle" fill="#243447">At t = 0.25, velocity v = (−0.5, 0, −1).</text><text x="510" y="459" font-size="16" text-anchor="middle" fill="#243447">Illustration of exact formulas, not trained samples. Panel B shows the coordinate-2 = 0 slice.</text></g></svg>
